 <svg
      className="w-[400px]"
      xmlns="http://www.w3.org/2000/svg"
      viewBox="0 0 600 200"
    >
      <title>Firmas2</title>
      <g>
        <path d="M97.63,14.31c-8.4,3.4-37.9,59.7-46.6,88.9-2.2,7.5-4.4,15.8-4.8,18.6-2.3,14.1-3.2,16.3-9.8,24.4A81.37,81.37,0,0,0,28,160c-4,8.5-7.6,20.8-6.4,22,1.4,1.5,6.5-2.8,15.9-13.5,5.5-6.1,10.1-11.2,10.3-11.2s2.9-.7,6.1-1.5,15.9-2.8,28.3-4.5c43.1-5.8,50.6-6.9,65-9.5,22.5-4.1,64.1-14.6,99.4-25.1,13.6-4,17.4-5.4,15.1-5.4-.4,0-13.9,3.4-30,7.5-57.2,14.7-78.3,19.1-123.3,25.5-34.2,4.9-33.4,4.8-29,1.3,1.8-1.4,5.3-4.6,7.8-6.9,4.7-4.4,22.8-15.4,25.4-15.4.8,0,4.1-2.2,7.3-4.9,5.9-4.9,39-27.1,40.5-27.1.4,0,.8-.7.8-1.6,0-2.5-3-1-19.1,9.7-8.2,5.4-15.2,9.9-15.5,9.9s.4-1.3,1.5-2.9a13.94,13.94,0,0,0,2.1-3.5c0-1.3-3.7-.5-8.7,1.9-2.9,1.3-5.3,2.1-5.3,1.8a61.58,61.58,0,0,1,5.2-7.5c3.9-5.4,4.8-7.2,3.8-7.8-1.8-1.1-10.4,3.3-22.5,11.5-5.3,3.6-9.8,6.5-10.1,6.5s.7-2,2.1-4.3a21.34,21.34,0,0,0,2.5-5.5c0-2-4.1-1.3-8.7,1.4l-4.4,2.5,4.1-8.1c2.3-4.6,4-9.2,3.8-10.6l-.3-2.4-4.5,2.2c-5.8,2.9-20.2,17.2-26.9,26.8a144.47,144.47,0,0,0-9.3,15.5c-2.3,4.4-4.3,7.5-4.5,6.8s.4-4.7,1.5-9c1.5-6.5,3.3-10.2,9.6-20.2,4.3-6.8,7.6-12.5,7.3-12.7s-3.3,4.1-6.8,9.8-6.5,9.6-6.7,8.7c-.5-2.8,5.6-20.3,12.9-36.6,12.8-28.9,26.6-52.9,32.5-56.8,2.9-1.9,3-1.1.4,5.6-1.2,2.8-1.8,5.4-1.6,5.7.7.6,4.5-8.3,5.3-12.1C101.53,13.21,101,12.91,97.63,14.31ZM85.53,96c-2.6,4.8-6.4,10.2-8.3,12-5.2,4.9-24.3,20.3-24.8,19.9-1.4-1.5,9.3-16.8,18.8-26.9,7.1-7.6,18.3-16.4,18.8-14.8C90.23,86.71,88.23,91.11,85.53,96Zm32.7,3.5c-6.5,9.1-10,12.1-24.5,21.7-8.2,5.4-15.2,9.7-15.3,9.6-.8-.7,7.8-12.3,11.5-15.6,6.3-5.7,28.1-19.9,30.6-19.9C121,95.31,119.93,97.21,118.23,99.51Zm-24.6,3a78.32,78.32,0,0,1-15.7,19c-8.6,7.7-15.4,16.4-19.1,24.2-2.3,4.7-5.7,7.8-7.2,6.4-.4-.5,25.9-39.3,28.9-42.7,2.2-2.3,11.4-8.1,13-8.1C94,101.31,94,101.91,93.63,102.51Zm30.6,4.8c0,2.2-8.4,9.9-15.6,14.4-4.2,2.6-7.8,4.5-8,4.3s1.9-3,4.6-6.3a41.76,41.76,0,0,1,11.7-9.6C124.63,105.81,124.23,106,124.23,107.31ZM71.73,118c-.9,1.6-6.9,10.2-13.4,19.3-7.6,10.8-12.4,16.6-13.7,16.8-2,.3-2,0,.8-8.4,1.5-4.8,3.8-9.9,5-11.2,3.5-3.8,21.2-19.2,22.1-19.2C73,115.31,72.63,116.51,71.73,118Zm24.5,7.9c-6.5,6.5-22.8,17-25.2,16.2-1.8-.6,27.8-22.6,30.7-22.7C102.23,119.31,99.73,122.21,96.23,125.91Zm-17.6-.4c-1.7,2.9-13.3,17.5-15.4,19.3l-2.3,2,2.4-4.4c1.3-2.4,5.3-7.5,8.7-11.2C78.13,124.61,80.23,122.81,78.63,125.51Zm-1.1,18.2c-3.8,3.1-9.3,5.9-10.1,5-.4-.4-.2-.8.3-1.1a67.33,67.33,0,0,0,6-3.3C79.73,140.71,81.43,140.41,77.53,143.71ZM40.83,150c-.4,5.5-.5,5.7-4.8,7.7-4.9,2.4-4.9,4.2,0,3.9,1.7-.1,3.2,0,3.2.3,0,1-13.3,15.4-14.2,15.4-2.4,0,6.2-20.4,11.8-27.8a40.86,40.86,0,0,1,4.1-5.2A36.82,36.82,0,0,1,40.83,150Z" />
        <path d="M493.93,32a29.41,29.41,0,0,0-1.2,5.7c-1.2,7.6-22.2,71.7-24.1,73.6-.5.4-4.3,1.5-8.4,2.4s-14.2,3.6-22.5,6.1-19,5.1-23.9,6c-9.9,1.8-10.6,2-10.6,3.9,0,1,3.4,1.5,13.8,1.9,15,.6,29.8,2.5,28.5,3.7-.4.4-5.7,2.7-11.8,5.1-12.9,5.1-26,13.4-26,16.4,0,2.7,5.8,3.2,10.4.8,3.8-1.9,5.9-5.2,2.5-3.8-9.3,3.7-5.9.1,4.8-5.3,9.5-4.7,28.9-12.2,31.8-12.2,4.7,0,2.2,2-6.3,5a121.28,121.28,0,0,0-12.2,5.2,12.19,12.19,0,0,1-5,1.8,8.45,8.45,0,0,0-4,1.6l-2,1.6,2-.6c1.1-.3,8-2.4,15.3-4.7s13.6-3.8,14-3.5,0,2.2-.7,4.1-1,3.9-.6,4.5c1.2,1.9,3.3-.3,4.4-4.6,1-3.8,1.7-4.8,4.9-6.1,3.6-1.5,4.2-1.4,22.3,3.1,10.2,2.5,20,4.6,21.7,4.6,4.1,0,4.1-1.7.1-8.8-1.7-3-2.7-5.8-2.2-6.3,1.2-1.2,24.9-2.9,50.1-3.6,16.6-.5,22.2-.9,22.2-1.8,0-1.7-20.3-2.7-34.4-1.7l-10.9.7-1-3-1.1-3L533,124c-.8,3.3-.9,3.3-6.8,3.3-6.5,0-7.4-1-3.5-3.6,2.9-1.9,3.2-3.4.7-3.4-2.7,0-6,2.7-6.4,5.3-.2,1.8-1.1,2.3-5.2,2.8-5.6.6-6.8-.2-8.6-5.7-1-2.9-1-3.8.1-4.5,2.1-1.3,48.9-17.7,55.1-19.3a94.34,94.34,0,0,1,10.3-2.1c4.9-.8,6.6-2.2,4.4-3.7-2.7-1.8-33,1.9-55.2,6.7-14.7,3.2-18,3.7-18.7,2.5-1.4-2.2-2.5-23-2.5-47.8,0-17.3-.3-23.2-1.2-23.2A2,2,0,0,0,493.93,32Zm-.1,73.1c-.8.7-20,5.1-20.5,4.6s3.5-13.4,11.6-36.4l6.8-19.5,1.3,25.4C493.73,93.11,494.13,104.81,493.83,105.11Zm54.9-6.8c-4.9,2-46.1,16-47.1,16-1.8,0-2.5-5.3-.9-6.6,1.2-.9,14.8-4.2,36.5-8.8C544.63,97.31,552,96.91,548.73,98.31Zm-52.9,13.5a8.23,8.23,0,0,1,.1,3.8c-.5,1.4-26.5,11.2-27.3,10.4-.7-.6,1.7-10,2.8-11.2s17-5.2,21-5.4C494.63,109.31,495.33,109.91,495.83,111.81Zm-28.7,5.2a31.22,31.22,0,0,1-1.8,6.8c-1.5,4.4-2.3,5.2-5.9,6.4-3.4,1.3-5.8,1.3-15.9.2-14.1-1.5-19.4-2.6-17.3-3.4,2.3-1,38.3-11.5,39.8-11.6C466.63,115.31,467.23,116.11,467.13,117Zm32.4,7.5c.9,2.3,1.4,4.5,1,4.8-1.5,1.3-30.2,6.2-32.2,5.5-2.3-.7-2.7-2-.9-3.2,1.4-1,27.9-11.1,29.3-11.2C497.33,120.41,498.53,122.21,499.53,124.51Zm6.8,14.9c2.4,4.9,2.4,5-.7,3.9a16.88,16.88,0,0,0-5.6-1c-3.7,0-19-4.1-18.2-4.9.3-.3,4.9-1.3,10.2-2.2C502.83,133.41,503.23,133.51,506.33,139.41Z" />
      </g>
    </svg>